<svg viewBox="0 0 800 800" xmlns="http://www.w3.org/2000/svg"><path d="M427.5931877080751,102.53322105568606 L433.39489178320395,106.80877026175187 M433.39489178320395,106.80877026175187 L437.2558473922813,111.76172970921249 M437.2558473922813,111.76172970921249 L438.9516558845646,117.10426000147817 M438.9516558845646,117.10426000147817 L438.38375025581115,122.52587538591325 M438.38375025581115,122.52587538591325 L435.5851165873019,127.71149111104882 M435.5851165873019,127.71149111104882 L430.71838867779286,132.35973162496327 M430.71838867779286,132.35973162496327 L424.0663966193862,136.20045046825123 M424.0663966193862,136.20045046825123 L416.01572972484524,139.01042977759602 M416.01572972484524,139.01042977759602 L407.034269825585,140.62635478471998 M407.034269825585,140.62635478471998 L397.64400199027466,140.95430799692713 M397.64400199027466,140.95430799692713 L388.39066896640924,139.97523018853605 M388.39066896640924,139.97523018853605 L379.81205719663683,137.74602371957673 M379.81205719663683,137.74602371957673 L372.4067325209177,134.39625082236915 M372.4067325209177,134.39625082236915 L366.6050740710582,130.12059473990297 M366.6050740710582,130.12059473990297 L362.74424488546515,125.16755290016232 M362.74424488546515,125.16755290016232 L361.0486146528552,119.82498357477851 M361.0486146528552,119.82498357477851 L361.6167095402976,114.40338145840803 M361.6167095402976,114.40338145840803 L364.41550010965545,109.21782826297238 M364.41550010965545,109.21782826297238 L369.28231661803846,104.56968521558281 M369.28231661803846,104.56968521558281 L375.9343086764452,100.72907644725035 M375.9343086764452,100.72907644725035 L383.9848869721121,97.9191946044574 M383.9848869721121,97.9191946044574 L392.96618997052377,96.30333212704954 M392.96618997052377,96.30333212704954 L402.35626854714513,95.97539218289785 M402.35626854714513,95.97539218289785 L411.60942331133725,96.9544309581837 M411.60942331133725,96.9544309581837 L420.1879086576253,99.18355503483804 M420.1879086576253,99.18355503483804 L427.5931877080751,102.53322105568606 M427.5931877080751,102.53322105568606 L427.5889638025455,778.2742788006249 M427.5889638025455,778.2742788006249 L420.18481834743807,774.9241002161123 M420.18481834743807,774.9241002161123 L411.6076461845258,772.6946350395133 M411.6076461845258,772.6946350395133 L402.35590787802016,771.7154464517689 M402.35590787802016,771.7154464517689 L392.9672667185171,772.0434365772876 M392.9672667185171,772.0434365772876 L383.9873385644052,773.6595463137357 M383.9873385644052,773.6595463137357 L375.93799264308876,776.4698581233756 M375.93799264308876,776.4698581233756 L369.2870188704738,780.3110545781506 M369.2870188704738,780.3110545781506 L364.4209473802988,784.959908877403 M364.4209473802988,784.959908877403 L361.6225852613236,790.1462555548578 M361.6225852613236,790.1462555548578 L361.05457735223166,795.5686872689482 M361.05457735223166,795.5686872689482 L362.7499480317014,800.9120740946964 M362.7499480317014,800.9120740946964 L366.61018621190675,805.865873827197 M366.61018621190675,805.865873827197 L372.41095654838796,810.1421841490858 M372.41095654838796,810.1421841490858 L379.8151476147969,813.4924696099486 M379.8151476147969,813.4924696099486 L388.3924461624908,815.7220171788451 M388.3924461624908,815.7220171788451 L397.6443626740979,816.7012447996913 M397.6443626740979,816.7012447996913 L407.03319303435103,816.3732414061185 M407.03319303435103,816.3732414061185 L416.0132780412785,814.7570691399596 M416.0132780412785,814.7570691399596 L424.0627125343457,811.9466598637764 M424.0627125343457,811.9466598637764 L430.7136863069606,808.1053533340553 M430.7136863069606,808.1053533340553 L435.57966922538486,803.4564015682863 M435.57966922538486,803.4564015682863 L438.3778744915446,798.2699923611374 M438.3778744915446,798.2699923611374 L438.9456931998865,792.8475473789833 M438.9456931998865,792.8475473789833 L437.25014431531514,787.5041995863498 M437.25014431531514,787.5041995863498 L433.3897797503283,782.5504822461223 M433.3897797503283,782.5504822461223 L427.5889638025455,778.2742788006249" stroke="black"  stroke-width="4"  fill="red"/>
<path d="M427.5931877080751,102.53322105568606 L433.39489178320395,106.80877026175187 M433.39489178320395,106.80877026175187 L437.2558473922813,111.76172970921249 M437.2558473922813,111.76172970921249 L438.9516558845646,117.10426000147817 M438.9516558845646,117.10426000147817 L438.38375025581115,122.52587538591325 M438.38375025581115,122.52587538591325 L435.5851165873019,127.71149111104882 M435.5851165873019,127.71149111104882 L430.71838867779286,132.35973162496327 M430.71838867779286,132.35973162496327 L424.0663966193862,136.20045046825123 M424.0663966193862,136.20045046825123 L416.01572972484524,139.01042977759602 M416.01572972484524,139.01042977759602 L407.034269825585,140.62635478471998 M407.034269825585,140.62635478471998 L397.64400199027466,140.95430799692713 M397.64400199027466,140.95430799692713 L388.39066896640924,139.97523018853605 M388.39066896640924,139.97523018853605 L379.81205719663683,137.74602371957673 M379.81205719663683,137.74602371957673 L372.4067325209178,134.39625082236927 M372.4067325209178,134.39625082236927 L328.9241329687877,82.25937773628732 M471.073542819316,0.1893776939382974 L486.0176830518728,11.20174419729824 M486.0176830518728,11.20174419729824 L495.96299963832763,23.958977296879254 M495.96299963832763,23.958977296879254 L500.3314329335484,37.71972061503163 M500.3314329335484,37.71972061503163 L498.8690031556566,51.68427298422108 M498.8690031556566,51.68427298422108 L491.66058950531806,65.04105132521875 M491.66058950531806,65.04105132521875 L479.12504181411873,77.01378072547743 M479.12504181411873,77.01378072547743 L461.99082288259973,86.90659179906868 M461.99082288259973,86.90659179906868 L441.25371335899564,94.14448666445043 M441.25371335899564,94.14448666445043 L418.11893341517595,98.30677417671802 M418.11893341517595,98.30677417671802 L393.9310675818233,99.1515149045419 M393.9310675818233,99.1515149045419 L370.0959453656336,96.62961069315622 M370.0959453656336,96.62961069315622 L347.99887667996245,90.88764828987843 M347.99887667996245,90.88764828987843 L328.9241329687877,82.25937773628732 M427.5931877080751,102.53322105568606 L471.073542819316,0.1893776939382974 M372.4067325209178,134.39625082236927 L366.6050740710582,130.12059473990297 M366.6050740710582,130.12059473990297 L362.74424488546515,125.16755290016232 M362.74424488546515,125.16755290016232 L361.0486146528552,119.82498357477851 M361.0486146528552,119.82498357477851 L361.6167095402976,114.40338145840803 M361.6167095402976,114.40338145840803 L364.41550010965545,109.21782826297238 M364.41550010965545,109.21782826297238 L369.28231661803846,104.56968521558281 M369.28231661803846,104.56968521558281 L375.9343086764452,100.72907644725035 M375.9343086764452,100.72907644725035 L383.9848869721121,97.9191946044574 M383.9848869721121,97.9191946044574 L392.96618997052377,96.30333212704954 M392.96618997052377,96.30333212704954 L402.35626854714513,95.97539218289785 M402.35626854714513,95.97539218289785 L411.60942331133725,96.9544309581837 M411.60942331133725,96.9544309581837 L420.1879086576253,99.18355503483804 M420.1879086576253,99.18355503483804 L427.5931877080751,102.53322105568606 M328.9241329687877,82.25937773628732 L313.98029544865125,71.24630215871474 M313.98029544865125,71.24630215871474 L304.0358176516275,58.48852242529699 M304.0358176516275,58.48852242529699 L299.66856706645166,44.72752014087848 M299.66856706645166,44.72752014087848 L301.1322525304699,30.763055799105643 M301.1322525304699,30.763055799105643 L308.3417071797591,17.406692313027065 M308.3417071797591,17.406692313027065 L320.8778427032626,5.4346095570952 M320.8778427032626,5.4346095570952 L338.012061634782,-4.45747122120315 M338.012061634782,-4.45747122120315 L358.7485833260825,-11.694719442269616 M358.7485833260825,-11.694719442269616 L381.88232227095114,-15.856592099206239 M381.88232227095114,-15.856592099206239 L406.0689324181766,-16.701244799691324 M406.0689324181766,-16.701244799691324 L429.9028719243206,-14.17959955471241 M429.9028719243206,-14.17959955471241 L451.9991018205608,-8.438183785430454 M451.9991018205608,-8.438183785430454 L471.073542819316,0.1893776939382974" stroke="black"  stroke-width="4"  fill="red"/></svg>