<svg viewBox="0 0 800 800" xmlns="http://www.w3.org/2000/svg"><path d="M474.12702457569026,162.25949428872423 L489.71294230584806,173.7453012804824 M489.71294230584806,173.7453012804824 L500.08517811721015,187.05091681143142 M500.08517811721015,187.05091681143142 L504.64091076529746,201.40308398999872 M504.64091076529746,201.40308398999872 L503.1153168438022,215.96772050659592 M503.1153168438022,215.96772050659592 L495.5970165016269,229.8983809879004 M495.5970165016269,229.8983809879004 L482.5228935223437,242.385445203573 M482.5228935223437,242.385445203573 L464.65274736502437,252.70318598892482 M464.65274736502437,252.70318598892482 L443.02512789673847,260.25194223738845 M443.02512789673847,260.25194223738845 L418.8969738219559,264.59297877659947 M418.8969738219559,264.59297877659947 L393.6705753405938,265.47399836494196 M393.6705753405938,265.47399836494196 L368.8120478048113,262.84378964948814 M368.8120478048113,262.84378964948814 L345.7661230405073,256.8552282504713 M345.7661230405073,256.8552282504713 L325.87219110763596,247.85636438946244 M325.87219110763596,247.85636438946244 L310.28642078637426,236.37021209905822 M310.28642078637426,236.37021209905822 L299.9145934323054,223.0643303731623 M299.9145934323054,223.0643303731623 L295.3594367169855,208.7120370855106 M295.3594367169855,208.7120370855106 L296.88564210762416,194.147443435693 M296.88564210762416,194.147443435693 L304.4044493752032,180.21698497680842 M304.4044493752032,180.21698497680842 L317.4788586054618,167.73023565825116 M317.4788586054618,167.73023565825116 L335.34900476278114,157.41285050562522 M335.34900476278114,157.41285050562522 L356.9763379800918,149.8644091542995 M356.9763379800918,149.8644091542995 L381.1039851294706,145.52357463739918 M381.1039851294706,145.52357463739918 L406.32977214168903,144.64259791590064 M406.32977214168903,144.64259791590064 L431.1877237447041,147.27268052217784 M431.1877237447041,147.27268052217784 L454.23324005171503,153.26097572638895 M454.23324005171503,153.26097572638895 L474.12702457569026,162.25949428872423 M474.12702457569026,162.25949428872423 L474.1229067317035,710.0284188115758 M474.1229067317035,710.0284188115758 L454.23022734025903,701.0294004441165 M454.23022734025903,701.0294004441165 L431.1859912430743,695.0407726307421 M431.1859912430743,695.0407726307421 L406.3294205293761,692.4105439409681 M406.3294205293761,692.4105439409681 L381.10503483942665,693.2915695948482 M381.10503483942665,693.2915695948482 L356.9787280115145,697.6326452159016 M356.9787280115145,697.6326452159016 L335.35259622472336,705.1815058313484 M335.35259622472336,705.1815058313484 L317.48344278716456,715.4994640418463 M317.48344278716456,715.4994640418463 L304.4097598725365,727.9869069079245 M304.4097598725365,727.9869069079245 L296.89137030272474,741.9181390976578 M296.89137030272474,741.9181390976578 L295.3652497126091,756.4835416950273 M295.3652497126091,756.4835416950273 L299.92015339652187,770.8366321339547 M299.92015339652187,770.8366321339547 L310.29140458769075,784.1432528874657 M310.29140458769075,784.1432528874657 L325.87630909460097,795.6300431319125 M325.87630909460097,795.6300431319125 L345.76913587856376,804.6294067980407 M345.76913587856376,804.6294067980407 L368.8137803876617,810.6183008062176 M368.8137803876617,810.6183008062176 L393.6709269701409,813.2486556051665 M393.6709269701409,813.2486556051665 L418.8959240612993,812.3675870844427 M418.8959240612993,812.3675870844427 L443.0227377582956,808.0263094410816 M443.0227377582956,808.0263094410816 L464.6491557642593,800.477133928501 M464.6491557642593,800.477133928501 L482.5183092018181,790.1588200852811 M482.5183092018181,790.1588200852811 L495.5917058972734,777.671062322092 M495.5917058972734,777.671062322092 L503.1095885980012,763.7396281099411 M503.1095885980012,763.7396281099411 L504.635097786908,749.174182645793 M504.635097786908,749.174182645793 L500.0796182342143,734.8212183159483 M500.0796182342143,734.8212183159483 L489.70795863113216,721.5148637573809 M489.70795863113216,721.5148637573809 L474.1229067317035,710.0284188115758" stroke="black"  stroke-width="4"  fill="red"/>
<path d="M474.12702457569026,162.25949428872423 L489.71294230584806,173.7453012804824 M489.71294230584806,173.7453012804824 L500.08517811721015,187.05091681143142 M500.08517811721015,187.05091681143142 L504.64091076529746,201.40308398999872 M504.64091076529746,201.40308398999872 L503.1153168438022,215.96772050659592 M503.1153168438022,215.96772050659592 L495.5970165016269,229.8983809879004 M495.5970165016269,229.8983809879004 L482.5228935223437,242.385445203573 M482.5228935223437,242.385445203573 L464.65274736502437,252.70318598892482 M464.65274736502437,252.70318598892482 L443.02512789673847,260.25194223738845 M443.02512789673847,260.25194223738845 L418.8969738219559,264.59297877659947 M418.8969738219559,264.59297877659947 L393.6705753405938,265.47399836494196 M393.6705753405938,265.47399836494196 L368.8120478048113,262.84378964948814 M368.8120478048113,262.84378964948814 L345.7661230405073,256.8552282504713 M345.7661230405073,256.8552282504713 L325.8721911076361,247.85636438946267 M325.8721911076361,247.85636438946267 L266.5673337527847,172.53352801564836 M533.4289991370392,18.460873669657076 L561.484075262354,39.134846713888635 M561.484075262354,39.134846713888635 L580.1546012581554,63.08449527760638 M580.1546012581554,63.08449527760638 L588.3554180446002,88.91802204293379 M588.3554180446002,88.91802204293379 L585.6097622842163,115.13410694960533 M585.6097622842163,115.13410694960533 L572.077027472559,140.20915961441182 M572.077027472559,140.20915961441182 L548.5435532191373,162.68585241164817 M548.5435532191373,162.68585241164817 L516.3769327383059,181.2578355480477 M516.3769327383059,181.2578355480477 L477.44657867875424,194.84567113729497 M477.44657867875424,194.84567113729497 L434.0150590731973,202.6596006583208 M434.0150590731973,202.6596006583208 L388.6065976970961,204.24544712300656 M388.6065976970961,204.24544712300656 L343.8603298994631,199.5110377224621 M343.8603298994631,199.5110377224621 L302.37691312628294,188.73155529824544 M302.37691312628294,188.73155529824544 L266.5673337527847,172.53352801564836 M474.12702457569026,162.25949428872423 L533.4289991370392,18.460873669657076 M325.8721911076361,247.85636438946267 L310.28642078637426,236.37021209905822 M310.28642078637426,236.37021209905822 L299.9145934323054,223.0643303731623 M299.9145934323054,223.0643303731623 L295.3594367169855,208.7120370855106 M295.3594367169855,208.7120370855106 L296.88564210762416,194.147443435693 M296.88564210762416,194.147443435693 L304.4044493752032,180.21698497680842 M304.4044493752032,180.21698497680842 L317.4788586054618,167.73023565825116 M317.4788586054618,167.73023565825116 L335.34900476278114,157.41285050562522 M335.34900476278114,157.41285050562522 L356.9763379800918,149.8644091542995 M356.9763379800918,149.8644091542995 L381.1039851294706,145.52357463739918 M381.1039851294706,145.52357463739918 L406.32977214168903,144.64259791590064 M406.32977214168903,144.64259791590064 L431.1877237447041,147.27268052217784 M431.1877237447041,147.27268052217784 L454.23324005171503,153.26097572638895 M454.23324005171503,153.26097572638895 L474.12702457569026,162.25949428872423 M266.5673337527847,172.53352801564836 L238.51273524268115,151.85843620385845 M238.51273524268115,151.85843620385845 L219.84353267785218,127.90792516853179 M219.84353267785218,127.90792516853179 L211.64458195539973,102.07398980969128 M211.64458195539973,102.07398980969128 L214.39221891981606,75.85804379139574 M214.39221891981606,75.85804379139574 L227.92659620592582,50.783645679127574 M227.92659620592582,50.783645679127574 L251.460997933162,28.307973148508268 M251.460997933162,28.307973148508268 L283.62761841399384,9.737142262105124 M283.62761841399384,9.737142262105124 L322.55704499973166,-3.8496730605572225 M322.55704499973166,-3.8496730605572225 L365.9869221308358,-11.662948028876542 M365.9869221308358,-11.662948028876542 L411.3934023029037,-13.248655605166391 M411.3934023029037,-13.248655605166391 L456.13780403654346,-8.514654797972241 M456.13780403654346,-8.514654797972241 L497.61989737875143,2.2639651550407507 M497.61989737875143,2.2639651550407507 L533.4289991370392,18.460873669657076" stroke="black"  stroke-width="4"  fill="red"/></svg>