<svg viewBox="0 0 800 800" xmlns="http://www.w3.org/2000/svg"><path d="M427.5804430305695,103.98923332545337 L433.3802285785343,108.26530081340081 M433.3802285785343,108.26530081340081 L437.24107709089395,113.21936730948636 M437.24107709089395,113.21936730948636 L438.9383327354867,118.56369935067534 M438.9383327354867,118.56369935067534 L438.3729774774575,123.98778889137282 M438.3729774774575,123.98778889137282 L435.57745235648036,129.1763780389595 M435.57745235648036,129.1763780389595 L430.71388125634064,133.827789677329 M430.71388125634064,133.827789677329 L424.0647285630223,137.6714890646121 M424.0647285630223,137.6714890646121 L416.0164172109998,140.48385613969288 M416.0164172109998,140.48385613969288 L407.0368779417348,142.10123244135445 M407.0368779417348,142.10123244135445 L397.64830855175416,142.42948683278007 M397.64830855175416,142.42948683278007 L388.39675080553167,141.44951626080717 M388.39675080553167,141.44951626080717 L379.82025808642146,139.2183538686926 M379.82025808642146,139.2183538686926 L372.41753942045966,135.86584761290192 M372.41753942045966,135.86584761290192 L366.61891176373734,131.58706546797578 M366.61891176373734,131.58706546797578 L362.7612716664612,126.63090621006836 M362.7612716664612,126.63090621006836 L361.0685399517166,121.28558272876342 M361.0685399517166,121.28558272876342 L361.63869827640826,115.86183019669784 M361.63869827640826,115.86183019669784 L364.4382052760028,110.67482930177039 M364.4382052760028,110.67482930177039 L369.3040248661031,106.02589331057487 M369.3040248661031,106.02589331057487 L375.9531775595792,102.18498982413257 M375.9531775595792,102.18498982413257 L383.99924042182045,99.37509839721889 M383.99924042182045,99.37509839721889 L392.974797812356,97.75931034799345 M392.974797812356,97.75931034799345 L402.358564135368,97.43139296424363 M402.358564135368,97.43139296424363 L411.605597951506,98.41037209740051 M411.605597951506,98.41037209740051 L420.1788822555709,100.6394417270846 M420.1788822555709,100.6394417270846 L427.5804430305695,103.98923332545337 M427.5804430305695,103.98923332545337 L427.4736836813166,776.5836723456732 M427.4736836813166,776.5836723456732 L420.1007803283648,773.2210395712534 M420.1007803283648,773.2210395712534 L411.5606865365713,770.983424413773 M411.5606865365713,770.983424413773 L402.3494495297928,770.0006920527467 M402.3494495297928,770.0006920527467 L393.00200892155584,770.3298666216217 M393.00200892155584,770.3298666216217 L384.06119819835413,771.95184921489 M384.06119819835413,771.95184921489 L376.0462862390249,774.7725125361874 M376.0462862390249,774.7725125361874 L369.42287979283185,778.6281392245514 M369.42287979283185,778.6281392245514 L364.57590552359557,783.2948940567235 M364.57590552359557,783.2948940567235 L361.78724619917165,788.5017738539168 M361.78724619917165,788.5017738539168 L361.21930485250886,793.9463100542362 M361.21930485250886,793.9463100542362 L362.90549085057563,799.3121140932917 M362.90549085057563,799.3121140932917 L366.7481999325634,804.2872605481027 M366.7481999325634,804.2872605481027 L372.52437690219193,808.5824330716941 M372.52437690219193,808.5824330716941 L379.8984291965063,811.9477803539678 M379.8984291965063,811.9477803539678 L388.44170660477863,814.1874881585745 M388.44170660477863,814.1874881585745 L397.6574325751603,815.171211903792 M397.6574325751603,815.171211903792 L407.0096391263722,814.8417003458089 M407.0096391263722,814.8417003458089 L415.95440095146023,813.2181295876123 M415.95440095146023,813.2181295876123 L423.9715440214846,810.3949907545473 M423.9715440214846,810.3949907545473 L430.5949504675223,806.5365683193861 M430.5949504675223,806.5365683193861 L435.43969362588695,801.8673379764384 M435.43969362588695,801.8673379764384 L438.2244018485348,796.6588700140924 M438.2244018485348,796.6588700140924 L438.7875772525242,791.2139968237086 M438.7875772525242,791.2139968237086 L437.0969022910868,785.8491841701448 M437.0969022910868,785.8491841701448 L433.2510095925828,780.8761303618528 M433.2510095925828,780.8761303618528 L427.4736836813166,776.5836723456732" stroke="black"  stroke-width="4"  fill="red"/>
<path d="M427.5804430305695,103.98923332545337 L433.3802285785343,108.26530081340081 M433.3802285785343,108.26530081340081 L437.24107709089395,113.21936730948636 M437.24107709089395,113.21936730948636 L438.9383327354867,118.56369935067534 M438.9383327354867,118.56369935067534 L438.3729774774575,123.98778889137282 M438.3729774774575,123.98778889137282 L435.57745235648036,129.1763780389595 M435.57745235648036,129.1763780389595 L430.71388125634064,133.827789677329 M430.71388125634064,133.827789677329 L424.0647285630223,137.6714890646121 M424.0647285630223,137.6714890646121 L416.0164172109998,140.48385613969288 M416.0164172109998,140.48385613969288 L407.0368779417348,142.10123244135445 M407.0368779417348,142.10123244135445 L397.64830855175416,142.42948683278007 M397.64830855175416,142.42948683278007 L388.39675080553167,141.44951626080717 M388.39675080553167,141.44951626080717 L379.82025808642146,139.2183538686926 M379.82025808642146,139.2183538686926 L372.41753942045966,135.86584761290203 M372.41753942045966,135.86584761290203 L328.8957598624019,83.77096730656172 M471.04520516776824,1.7009467943524896 L485.993030371526,12.704670816830003 M485.993030371526,12.704670816830003 L495.9485738220145,25.455235389812003 M495.9485738220145,25.455235389812003 L500.33143269939325,39.212821081608354 M500.33143269939325,39.212821081608354 L498.8843200069558,53.17844467777326 M498.8843200069558,53.17844467777326 L491.6886183877766,66.54028947391231 M491.6886183877766,66.54028947391231 L479.16024836853904,78.52091299505759 M479.16024836853904,78.52091299505759 L462.02603398917404,88.42263972627 M462.02603398917404,88.42263972627 L441.2817497234358,95.66843088011154 M441.2817497234358,95.66843088011154 L418.13425590025645,99.83578092601209 M418.13425590025645,99.83578092601209 L393.93106516236776,100.68159874275972 M393.93106516236776,100.68159874275972 L370.0815025585992,98.15653184383211 M370.0815025585992,98.15653184383211 L347.97420014954685,92.40789415016854 M347.97420014954685,92.40789415016854 L328.8957598624019,83.77096730656172 M427.5804430305695,103.98923332545337 L471.04520516776824,1.7009467943524896 M372.41753942045966,135.86584761290203 L366.61891176373734,131.58706546797578 M366.61891176373734,131.58706546797578 L362.7612716664612,126.63090621006836 M362.7612716664612,126.63090621006836 L361.0685399517166,121.28558272876342 M361.0685399517166,121.28558272876342 L361.63869827640826,115.86183019669784 M361.63869827640826,115.86183019669784 L364.4382052760028,110.67482930177039 M364.4382052760028,110.67482930177039 L369.3040248661031,106.02589331057487 M369.3040248661031,106.02589331057487 L375.9531775595792,102.18498982413257 M375.9531775595792,102.18498982413257 L383.99924042182045,99.37509839721889 M383.99924042182045,99.37509839721889 L392.974797812356,97.75931034799345 M392.974797812356,97.75931034799345 L402.358564135368,97.43139296424363 M402.358564135368,97.43139296424363 L411.605597951506,98.41037209740051 M411.605597951506,98.41037209740051 L420.1788822555709,100.6394417270846 M420.1788822555709,100.6394417270846 L427.5804430305695,103.98923332545337 M328.8957598624019,83.77096730656172 L313.9556235650567,72.74923279822332 M313.9556235650567,72.74923279822332 L304.0213853550296,59.984783733842164 M304.0213853550296,59.984783733842164 L299.6685673006068,46.220620301336794 M299.6685673006068,46.220620301336794 L301.1475743966229,32.25723259913087 M301.1475743966229,32.25723259913087 L308.3697173888944,18.905925115574462 M308.3697173888944,18.905925115574462 L320.91301834953805,6.94172635742882 M320.91301834953805,6.94172635742882 L338.0472327358593,-2.9414508751710855 M338.0472327358593,-2.9414508751710855 L358.7765860680948,-10.170817260519414 M358.7765860680948,-10.170817260519414 L381.89763851324824,-14.32762998758733 M381.89763851324824,-14.32762998758733 L406.06893483405,-15.171211903792141 M406.06893483405,-15.171211903792141 L429.88845660444895,-12.652722753891055 M429.88845660444895,-12.652722753891055 L451.97445377471695,-6.917969566592035 M451.97445377471695,-6.917969566592035 L471.04520516776824,1.7009467943524896" stroke="black"  stroke-width="4"  fill="red"/></svg>